<svg width="382" height="843" viewBox="0 0 382 843" fill="none" xmlns="http://www.w3.org/2000/svg">
<path d="M99 220C41.4 310.4 178.333 341 225 355L381 -3L242 115L163 99L1 -3L72 189L99 220Z" fill="#D36868"/>
<path d="M251 560L320 409L131 500L225 355H131L27 247L110 449L65 555L251 560Z" fill="#752929"/>
<path d="M216 -3L163 99L242 115L381 -3H216Z" fill="#79E2C9"/>
<path d="M251 560L65 555L99 680L174 692L251 560Z" fill="#A5D7AA"/>
<path d="M174 692L99 680V774L131 758L174 692Z" fill="#CC5CBA"/>
<path d="M131 758L99 774L191 842L131 758Z" fill="#49B34D"/>
<path d="M225 355C178.333 341 41.4 310.4 99 220L72 189L1 -3L163 99M225 355L381 -3M225 355H131L27 247L110 449L65 555M225 355L131 500M381 -3H216L163 99M381 -3L242 115L163 99M115 449L131 500M251 560L320 409L131 500M251 560L65 555M251 560L174 692M65 555L99 680M174 692L99 680M174 692L131 758M99 680V774M99 774L131 758M99 774L191 842L131 758" stroke="black"/>
</svg>
